<svg version="1.1" id="Layer_1" xmlns="http://www.w3.org/2000/svg" x="0" y="0" viewBox="0 0 272.77 106.86" style="enable-background:new 0 0 272.77 106.86" xml:space="preserve"><style>.st0{fill:#333333}</style><path class="st0" d="M51.67 46.25c.12.08.27.12.18-.05-.1-.16-1.39-1.65-1.31-3.56.01-.95.4-1.78.97-2.29.45-.38 1.49-1.23 3.37-.85.94.18 1.98.72 3.1 1.6 1.43 1.16 3.62 1.61 5.11 3 .63.58 1.33 1.19 1.49 1.39.15.18 1.14 1.05 1.25 1.23l.01.33c.23.05 1.06-.66 1.19-1.15.15-.53-.03-1.02-.25-1.41-.23-.39-.89-1.24-1.02-1.5-.15-.27-.33-.69-.3-.75.05-.06 2.58-.7-1.04-4.19-1.06-1.03-3.16-2.72-5.48-3.51-2.18-.75-3.79-.7-4.37-.68-.27 0-.2.31-.11.31.04 0 4.04.37 7.12 2.77 2.95 2.29 3.07 3.23 2.92 3.54-.13.2-.59.2-.98.02-.48-.2-.9-.42-.83-.56.04-.06.31-.44.13-.85a.764.764 0 0 0-.86-.46c-.47.11-.63.48-.6.74.02.63.61.63.61.77 0 .1-.18 1.34-.86 1.36-1.23 0-3.17-1.68-3.58-2.02-2.09-1.72-5.3-1.94-6.96-.38-1.82 1.68-1.53 4.02-.55 5.36.77 1.09 1.35 1.63 1.65 1.79zm11.42-4.05c.35-.11.71-.12.71-.12s.4.74.62 1.08c.38.47.82 1.11 1.04 1.42.23.31-.16.6-.18.57-.04-.05-1.03-1.05-1.39-1.38-.36-.38-1.54-1.31-1.54-1.31s.38-.16.74-.26zM41.31 46.68c8.18 5.99 10.11 10.36 10.34 10.22.24-.11-1.97-5.04-9.49-11.39-7.54-6.37-14.94-6.28-14.94-6.28s-.26.49-.48 1.41c-.2.9-.2 1.6-.2 1.6s6.57-1.56 14.77 4.44z"/><path class="st0" d="M26.58 48.15s2.06-.23 5.07.09c2.98.31 7.86 1.91 7.86 1.91l.77-.72s-4.43-2.89-8.32-3.58c-2.75-.47-5.53-.27-5.53-.27s-.11.41-.04 1.24c.05.84.19 1.33.19 1.33zM27.3 51.75s.03.49.36 1.45c.33 1 .54 1.53.54 1.53s2.1-.69 3.75-.98c1.67-.26 4.42-.46 4.42-.46l.71-.81s-3.12-.65-5.19-.78c-2.09-.19-4.59.05-4.59.05zM49.58 49.72c4.67 3.36 6.44 4.54 9.33 6.39 3.43 2.15 2.29 3.77 2.29 3.77-.04.06-1.02-.54-2.68-1.02-1.62-.41-3.56-.51-3.69-.49-.14 0-.27.08.05.23.08.01 2.47.97 4.31 2.14 1.71 1.06 2.85 2.24 2.92 2.11.11-.19.82-1.39 1.03-2.7.18-1.44.15-3.23-2.8-5.03-2-1.21-3.24-1.97-9.63-6.06-6.37-4.06-5.06-9.22-4.7-10.22.07-.2-.19-.37-.34-.2-.45.98-2.34 6.65 3.91 11.08zM207.37 47l.01-.33c.12-.21 1.07-1.08 1.23-1.26.2-.19.89-.81 1.5-1.38 1.48-1.4 3.69-1.84 5.12-2.99 1.08-.91 2.15-1.43 3.09-1.64 1.89-.37 2.93.48 3.35.85.57.52.95 1.38 1 2.29.05 1.94-1.21 3.41-1.32 3.55-.07.2.07.14.16.1.29-.19.87-.71 1.68-1.8.98-1.36 1.24-3.68-.57-5.35-1.68-1.56-4.88-1.36-6.95.37-.4.34-2.35 2.02-3.57 2.02-.66 0-.86-1.25-.86-1.34 0-.14.59-.14.62-.79.02-.23-.17-.63-.62-.74-.35-.05-.68.08-.88.48-.14.37.11.78.15.84.04.12-.37.36-.86.55-.39.16-.83.17-.96-.01-.18-.32-.02-1.25 2.93-3.54 3.08-2.4 7.08-2.77 7.09-2.77.09 0 .17-.32-.08-.32-.59-.03-2.21-.06-4.38.68-2.31.8-4.42 2.48-5.45 3.49-3.66 3.49-1.11 4.14-1.08 4.22.05.03-.13.48-.27.75-.15.26-.79 1.11-1.04 1.49-.23.38-.39.89-.25 1.38.14.5.98 1.24 1.21 1.2zm.36-2.5c.25-.34.69-.92 1.01-1.41.28-.31.68-1.07.68-1.07s.33.02.71.12c.35.1.71.25.71.25s-1.15.92-1.52 1.29c-.35.35-1.34 1.34-1.39 1.4-.03 0-.42-.28-.2-.58zM221.56 56.82c.22.14 2.15-4.23 10.34-10.23 8.17-5.99 14.77-4.41 14.77-4.41s0-.75-.21-1.6c-.21-.95-.5-1.4-.5-1.4s-7.39-.09-14.9 6.26c-7.53 6.37-9.74 11.31-9.5 11.38z"/><path class="st0" d="M241.25 45.78c-3.9.68-8.34 3.59-8.34 3.59l.76.71s4.9-1.63 7.89-1.94c2.98-.31 5.04-.1 5.04-.1s.15-.46.19-1.3c.1-.85-.02-1.25-.02-1.25s-2.79-.18-5.52.29zM241.3 51.62c-2.09.12-5.19.77-5.19.77l.68.83s2.79.18 4.45.46c1.65.26 3.73.96 3.73.96s.23-.53.56-1.53c.31-.96.36-1.43.36-1.43s-2.48-.23-4.59-.06zM222.5 48.99c-6.37 4.08-7.64 4.82-9.63 6.08-2.95 1.78-2.98 3.57-2.79 5 .2 1.32.92 2.51 1.02 2.67.07.16 1.2-1.02 2.92-2.08 1.84-1.16 4.23-2.11 4.31-2.16.31-.14.19-.19.06-.21-.15 0-2.08.08-3.68.51-1.67.46-2.67 1.06-2.72 1.02 0 0-1.1-1.62 2.32-3.78 2.89-1.84 4.64-3.05 9.32-6.37 6.25-4.45 4.37-10.12 3.92-11.11-.12-.17-.41 0-.36.18.37 1.03 1.69 6.19-4.69 10.25z"/><path class="st0" d="M30.27 71.11c-.4-.77-1.25-2.46-1.87-4.18-.86-2.31-1.14-3.39-1.39-4.69-.27-1.29-.62-4.53-.47-4.49.18.01.61.1 1.43.63.85.53 1 .75 1.08.73.09-.01 2.02-.7 2.74-.84.68-.11.84-.19 1.14-.25.31-.03.31 0 .38-.15.07-.16.25-.49.39-.73.18-.31.53-.76.48-.77-.02-.06-2.51.4-3.2.52-.54.14-2.08.63-2.12.58-.06-.04-1.58-1.54-2.19-1.97-.79-.57-2.04-1.32-2.04-1.32-.54-.27-1.08-.53-1.16-.45-.01 0-.08.29-.01 1.31.07 1.01.25 2.86.54 4.22.3 1.41.93 3.67 1.31 4.66.4 1.03 1.18 2.99 1.71 4.15.46 1.01 1.18 2.38 1.51 3.04m37.32 0c1.3-1.87 3.64-5.71 3.99-9.5.21-4.71-6.37-7.56-6.4-7.57-.13-.09-.27.01-.03.16.7.48 5.6 3.85 4.98 7.11-.61 3.23-4.17 8.31-5.25 9.8m113.47 0c.11-.62.22-1.24.29-1.87l8.73.98.26-2.15-8.77-.96c.06-.82.1-1.6.13-2.45h17.3v-2.14h-17.3c-.03-.82-.08-1.61-.16-2.4l8.79-1-.25-2.12-8.75.99c-.11-.79-.24-1.59-.38-2.36l16.83-3.84-.46-2.1-16.84 3.84c-.19-.78-.41-1.56-.65-2.32l8.29-2.89-.7-2.04-8.28 2.9c-.28-.77-.59-1.5-.92-2.26l15.51-7.45-.93-1.94-15.48 7.44c-.35-.72-.75-1.43-1.15-2.13l7.36-4.64-1.14-1.81-7.34 4.62c-.45-.68-.9-1.35-1.38-1.99l13.39-10.68-1.33-1.68-13.4 10.64c-.52-.63-1.05-1.23-1.6-1.83l6.06-6.1-1.52-1.5-6.05 6.06c-.58-.57-1.18-1.12-1.81-1.66l10.61-13.29-1.68-1.34-10.59 13.25c-.65-.49-1.3-.97-1.97-1.44l4.5-7.17-1.82-1.14-4.48 7.14c-.72-.42-1.42-.83-2.15-1.22l7.3-15.2-1.94-.94-7.29 15.19c-.75-.33-1.51-.66-2.28-.96l2.76-7.91-2.03-.71-2.75 7.89c-.79-.26-1.55-.47-2.35-.69l3.73-16.39-2.09-.48-3.72 16.37c-.8-.16-1.62-.3-2.43-.41l.9-8.27-2.13-.22-.9 8.25c-.82-.08-1.64-.13-2.46-.14V5.66h-2.16v16.77c-.82.01-1.64.06-2.46.14l-.93-8.25-2.12.25.92 8.25c-.81.11-1.63.25-2.43.41l-3.74-16.37-2.09.48 3.74 16.39c-.79.21-1.58.45-2.37.71l-2.75-7.91-2.03.71 2.76 7.92c-.77.29-1.52.62-2.27.97l-7.32-15.2-1.93.94 7.32 15.22c-.73.37-1.43.79-2.15 1.22l-4.5-7.15-1.81 1.14 4.51 7.19c-.67.46-1.32.94-1.96 1.43l-10.6-13.26L99.66 19l10.61 13.29c-.62.54-1.22 1.09-1.8 1.66l-6.07-6.06-1.52 1.5 6.08 6.1c-.54.6-1.09 1.21-1.61 1.84L91.96 26.64l-1.35 1.68L104.01 39c-.49.64-.95 1.33-1.38 2l-7.37-4.63-1.13 1.81 7.37 4.64c-.4.72-.78 1.42-1.15 2.13L84.84 37.5l-.93 1.94 15.53 7.47c-.32.76-.63 1.49-.91 2.26l-8.28-2.9-.71 2.04 8.3 2.89c-.24.76-.47 1.55-.65 2.34l-16.85-3.85-.48 2.1 16.86 3.86c-.13.77-.27 1.55-.38 2.34L87.53 57l-.23 2.12 8.78 1c-.05.79-.12 1.58-.13 2.4H78.64v2.14h17.32c.03.81.07 1.63.13 2.43l-8.78.98.23 2.15 8.79-.98c.09.63.19 1.25.29 1.87m113.5 0c-1-1.35-4.69-6.57-5.31-9.87-.65-3.26 4.26-6.65 4.98-7.12.22-.13.12-.23-.02-.16-.03 0-6.62 2.86-6.4 7.57.33 3.85 2.74 7.74 4.03 9.57m37.24.01c.32-.63 1.09-2.06 1.58-3.11.53-1.18 1.29-3.1 1.68-4.13.38-1 1.02-3.29 1.31-4.66.31-1.37.48-3.24.55-4.25.1-1.03 0-1.29-.02-1.31-.05-.06-.6.17-1.12.47 0 0-1.26.75-2.05 1.29-.62.46-2.16 1.94-2.2 2.01-.07.04-1.57-.45-2.11-.59-.69-.12-3.18-.57-3.22-.53-.05.01.31.48.46.72.18.27.34.61.42.76.07.18.07.12.36.18s.44.12 1.15.25c.7.14 2.64.82 2.75.83.08 0 .23-.21 1.04-.72.83-.54 1.29-.64 1.44-.65.15-.03-.17 3.24-.43 4.51-.28 1.31-.54 2.39-1.4 4.7-.66 1.78-1.56 3.54-1.94 4.25M91.73 94.07c-1.44-.22-1.51-.3-2.58-2.92L84.9 80.86c-.28-.65-.54-1.34-.79-2.06-.4-1.19-.51-1.36-.81-1.36-.27 0-.32.12-.69 1.2-.01.08-.14.34-.27.78-.08.2-.17.43-.26.66l-.56 1.38-.48 1.39c-1 2.67-1.1 2.9-1.85 4.86-1.02 2.62-1.49 3.71-1.95 4.75-.59 1.26-.77 1.39-1.87 1.5-.6.04-.8.14-.8.45 0 .26.15.38.44.38.25 0 .29 0 .5-.01.62-.02 1.22-.06 1.83-.06.43 0 .97.04 1.52.06h.35l.77.05h.26c.47 0 .69-.14.69-.38 0-.32-.27-.45-1.02-.49-.95 0-1.31-.2-1.31-.7 0-.22.12-.66.27-1.17l.91-2.88c.23-.69.23-.69 1.03-.69h3.24c.79 0 .82.02 1.14.82l1.15 3.25c.13.35.19.61.2.81.02.37-.27.54-.95.57-.74.11-1 .24-1 .53 0 .27.18.35.57.35.12 0 .33 0 .4-.01 1.83-.14 1.91-.14 2.84-.14.92 0 2.05.07 2.64.11.2 0 .45.03.55.03.37 0 .57-.14.57-.38-.05-.21-.2-.38-.43-.39zm-7.49-6.74c-.01.12-.15.2-.62.2h-2.57c-.54 0-.65-.08-.65-.26 0-.12.03-.31.12-.54l1.67-4.57.15.32 1.76 4.35c.17.5.14.44.14.5zM109.5 94.1c-1.47-.17-1.51-.17-2.42-1.81l-2.6-4.65c-.51-.83-.78-1.17-1.31-1.51 2.51-.55 3.7-1.86 3.7-4.1 0-2.61-1.98-4.23-5.24-4.23h-.31c-.42.02-1.04.04-1.67.04-.88.01-1.66.03-2.44.03-.71 0-1.17 0-1.92-.03-.98-.04-.82-.04-1.01-.04h-.13c-.43 0-.55.07-.55.38 0 .29.2.38.95.46 1.11.07 1.34.37 1.34 1.91v11.53c0 1.51-.23 1.85-1.34 1.91-.75.07-.95.16-.95.46 0 .3.12.38.55.38h.13c.13 0 .2 0 .31-.01 1.67-.05 2.08-.07 2.71-.07.57 0 1.27.02 2.13.03.97.05.81.05 1 .05h.15c.4 0 .55-.08.55-.38 0-.31-.2-.39-.96-.46-1.12-.06-1.38-.4-1.38-1.91v-4.9c0-.52.09-.58.59-.58 1.13 0 1.29.1 1.9 1.24l.05.05 3.2 6.11c.36.67.51.8.91.8l1.74-.03c.06 0 .23 0 .46.02.83.01 1.38.05 1.45.05.16.01.27.01.43.01.21 0 .36-.12.36-.35a.49.49 0 0 0-.38-.4zm-8.19-8.33c-.35.07-.73.11-1.15.11-1.35 0-1.38 0-1.38-1v-4.55c0-1.45.25-1.76 1.3-1.76.44 0 .84.07 1.24.18 1.56.43 2.49 1.77 2.49 3.7-.01 1.92-.84 3.01-2.5 3.32zM139.71 77.61h-.06c-5.21.05-9.23 3.81-9.23 8.72 0 4.77 4.14 8.66 9.23 8.69h.04c4.99 0 9.19-4.1 9.19-8.94-.01-4.71-4.1-8.47-9.17-8.47zm.16 16.71h-.23c-3.33-.16-5.97-3.94-5.97-8.59 0-4.43 2.31-7.42 5.71-7.42h.26c3.45.16 5.99 3.53 5.99 7.96 0 4.58-2.49 8.05-5.76 8.05zM49.8 78.64c.77-.07.98-.16.98-.46 0-.31-.16-.38-.58-.38-.14 0-.54.02-1.16.04-.77.01-1.34.03-1.9.03-.97 0-1.31 0-2.21-.03-.63-.03-1.02-.04-1.16-.04-.4 0-.55.07-.55.38 0 .29.2.38.95.46 1.15.07 1.35.37 1.35 1.91v3.84c0 .8-.04.86-.99.86h-5.78c-.89 0-.89 0-.89-.86v-3.84c0-1.54.24-1.84 1.33-1.91.77-.07.98-.16.98-.46 0-.31-.15-.38-.56-.38h-.16c-.08 0-.2 0-.26.02-1.8.06-1.92.06-2.84.06-.47 0-1.31-.02-1.97-.03-.99-.04-.81-.04-1.03-.04h-.13c-.43 0-.59.07-.59.38 0 .29.21.38 1 .46 1.11.07 1.33.37 1.33 1.91v11.53c0 1.51-.22 1.85-1.33 1.91-.79.07-1 .16-1 .46 0 .3.16.38.59.38.13 0 .52-.01 1.16-.05.78-.01 1.3-.03 1.92-.03.91 0 1.29 0 2.18.03.61.03 1.01.05 1.13.05.41 0 .56-.08.56-.38 0-.31-.21-.39-.98-.46-1.09-.06-1.33-.4-1.33-1.91V86.8c0-.63.02-.64 1.04-.64h5.74c.79 0 .88.05.88.68v5.25c0 1.51-.21 1.85-1.35 1.91-.75.07-.95.16-.95.46 0 .3.15.38.55.38h.15c.12 0 .2 0 .3-.01 1.76-.07 1.91-.07 2.75-.07.67 0 1.21.02 2.07.03.99.05.83.05 1.02.05h.14c.42 0 .58-.08.58-.38 0-.31-.21-.39-.98-.46-1.13-.06-1.35-.4-1.35-1.91V80.55c0-1.54.22-1.84 1.35-1.91zM65.44 90.56c-.17 0-.3.12-.44.34-1.35 2.63-2.05 3.05-4.51 3.05-2.25 0-2.71-.36-2.71-2.2v-4.77c0-.79.05-.82 1.65-.82 2.37 0 2.86.34 3.35 2.19.12.44.29.66.54.66.19 0 .35-.21.34-.49l-.12-2.05c0-.01.02-.32.05-.73l.04-.56.04-.59.01-.56c.04-.37.08-.67.08-.68 0-.29-.1-.39-.32-.39-.18 0-.31.12-.38.41-.63 1.77-1.13 2.03-3.91 2.03-1.28 0-1.38-.09-1.38-1.06v-4.06c0-1.51.1-1.68 1.49-1.68 1.29 0 2.52.18 3.23.42.92.39 1.17.65 1.86 2.06.16.35.3.5.46.5.23 0 .32-.15.32-.5v-2.51c0-.69-.05-.77-.35-.77-.09 0-.36 0-.59.02-.52.03-1.06.04-1.67.04h-7.69c-.1 0-.31 0-.58-.01-.21-.03-.47-.03-.73-.03-.15-.02-.37-.02-.42-.02-.43 0-.55.07-.55.38 0 .29.18.38.95.46 1.12.04 1.34.37 1.34 1.91v11.53c0 1.51-.22 1.85-1.34 1.91-.77.07-.95.16-.95.46 0 .3.13.38.55.38.04 0 .27 0 .42-.01.26 0 .52 0 .73-.03.27-.01.49-.01.58-.01h9.25c1.29 0 1.21.05 1.34-1.34.03-.6.08-1.09.18-1.49.08-.4.12-.81.12-1.02.01-.18-.09-.37-.28-.37zM123.96 76.62c-.15 0-.26.12-.37.4-.13.35-.34.55-.59.65-.43.09-1.52.19-2.55.19h-8.77c-.81 0-1.08-.18-1.2-.75-.07-.3-.12-.37-.31-.37-.22 0-.31.11-.39.48l-1.15 3.85c-.03.18-.06.31-.06.44 0 .17.17.33.37.31.22-.03.36-.12.57-.55.39-.72 1.3-1.75 1.89-2.1.58-.4 1.33-.51 3.02-.51.51 0 .67.14.67.73v12.69c0 1.51-.22 1.85-1.33 1.91-.78.07-.97.16-.97.46 0 .3.15.38.58.38.13 0 .41 0 1.14-.05.71-.03 1.53-.08 1.9-.08.64 0 1.37.04 2.22.08.74.05.99.05 1.14.05.42 0 .58-.08.58-.38 0-.31-.21-.39-.97-.46-1.15-.06-1.38-.4-1.38-1.91V79.64c0-.99-.07-.96 1.93-.96 2.24 0 2.96.55 3.34 2.62.07.44.18.62.43.62.29 0 .42-.23.45-.85l.17-3.35.03-.3c.01-.5-.1-.8-.39-.8zM182.19 90.69c-.18 0-.31.07-.42.33-1.08 2.03-2.56 2.98-4.67 2.98-1.64 0-2.21-.65-2.21-2.62V80.55c0-1.54.23-1.84 1.39-1.91.75-.07.95-.16.95-.46 0-.31-.15-.38-.57-.38-.16 0-.49.02-1.13.04-.82.03-1.59.05-1.93.05-.6 0-1.26-.02-2.19-.05-.69-.03-1-.04-1.18-.04-.36 0-.55.07-.55.38 0 .29.21.38.97.46 1.11.07 1.34.37 1.34 1.91v11.53c0 1.51-.23 1.85-1.34 1.91-.75.07-.97.16-.97.46 0 .3.18.38.55.38.08 0 .3 0 .44-.01.26 0 .54 0 .74-.03.29-.01.45-.01.57-.01h8.45c.22 0 .41 0 .59.01.18.03.36.03.42.03.49 0 .63-.16.7-.63.04-1.16.09-1.56.29-2.44.04-.25.06-.5.06-.66 0-.24-.11-.4-.3-.4zM190.24 78.64c.74-.07.96-.16.96-.46 0-.31-.14-.38-.58-.38h-.13c-.12 0-.21 0-.31.02-1.71.06-1.96.06-2.66.06-.76 0-1.28-.02-2.15-.03-.98-.04-.83-.04-1.01-.04h-.16c-.4 0-.58.07-.58.38 0 .29.23.38 1 .46 1.09.07 1.34.37 1.34 1.91v11.53c0 1.51-.25 1.85-1.34 1.91-.77.07-1 .16-1 .46 0 .3.18.38.58.38h.16c.11 0 .18 0 .29-.01 1.54-.05 2.01-.07 2.72-.07.57 0 1.39.02 2.1.03.98.05.82.05 1.02.05h.13c.44 0 .58-.08.58-.38 0-.31-.22-.39-.96-.46-1.15-.06-1.4-.4-1.4-1.91V80.55c.01-1.54.25-1.84 1.4-1.91zM209.16 77.76c-.28 0-.56.05-.97.06-.47.04-.94.06-1.47.06-.49 0-1.02-.02-1.62-.03-.31-.03-.71-.04-.82-.04-.42 0-.62.09-.62.38 0 .32.23.38 1.15.41.73.05 1.14.34 1.14.91 0 .29-.18.88-.39 1.43l-3.7 9.41-4.29-10.09c-.25-.49-.35-.86-.35-1.03-.03-.34.37-.55.97-.65 1.11-.09 1.11-.09 1.11-.42 0-.26-.15-.35-.58-.35-.18 0-.65.02-1.09.06-.57.03-1.01.07-1.05.07-4.52-.13-3.16-.08-4.27-.13h-.25c-.25 0-.42.09-.42.35 0 .27.17.36.88.42.9.09 1.18.36 1.77 1.81l5.95 14.19c.16.41.31.58.49.58s.36-.2.49-.51l5.45-13.55c.74-1.86 1.07-2.35 1.76-2.43 1.12-.18 1.16-.18 1.16-.51 0-.28-.16-.4-.43-.4zM216.64 78.64c.78-.07 1-.16 1-.46 0-.31-.16-.38-.57-.38h-.14c-.16 0-.21 0-.31.02-1.69.06-1.95.06-2.66.06-.77 0-1.25-.02-2.15-.03-.99-.04-.8-.04-1.01-.04h-.15c-.41 0-.59.07-.59.38 0 .29.24.38.98.46 1.11.07 1.36.37 1.36 1.91v11.53c0 1.51-.25 1.85-1.36 1.91-.75.07-.98.16-.98.46 0 .3.18.38.59.38h.15c.1 0 .2 0 .3-.01 1.54-.05 1.98-.07 2.71-.07.55 0 1.37.02 2.1.03.98.05.82.05 1.02.05h.14c.41 0 .57-.08.57-.38 0-.31-.22-.39-1-.46-1.12-.06-1.36-.4-1.36-1.91V80.55c0-1.54.24-1.84 1.36-1.91zM237.31 77.85c-.1 0-.43.01-.74.03-.46.02-1.12.05-1.81.05-.75 0-1.38-.04-1.9-.07-.26 0-.54-.01-.62-.01-.41 0-.65.12-.65.36 0 .33.26.43 1.26.47 1.22.05 1.35.43 1.39 3.33l.13 8.41-9.25-11.83c-.54-.75-.54-.75-.98-.75l-1.76.03-2.38-.06c-.56 0-.79.07-.79.37 0 .32.24.41 1.01.41 1.24.05 1.39.34 1.39 2.38v9c0 3.74-.05 3.91-1.31 4.07-1.15.16-1.22.2-1.22.51 0 .23.17.37.47.37.16 0 .6-.05 1.02-.09.64-.07 1.27-.11 1.92-.11.5 0 1.05.04 1.6.06.33.01.69.05.82.05.4 0 .59-.14.59-.38s-.13-.38-.48-.38c-2.22-.18-2.27-.28-2.31-4.39l-.11-9.4 11.52 14.44c.38.46.62.67.85.67.37 0 .49-.24.49-.82l-.07-14.17c0-1.34.2-1.6 1.4-1.67.84-.06 1.05-.17 1.05-.52-.01-.24-.18-.36-.53-.36zM257.24 86.75c0-.17-.14-.28-.43-.28-.11 0-.6.01-1.06.05-.49.06-1.18.08-1.86.08-1.13 0-2.2-.03-3.53-.08-.25 0-.62-.04-.66-.04-.42 0-.55.12-.55.32 0 .34.22.44 1.06.46 1.32.03 1.7.42 1.7 1.61v2.34c0 1.16-.18 2.04-.45 2.42-.33.43-1.25.69-2.36.69-3.75 0-6.57-3.33-6.57-7.8 0-4.45 3.02-8.21 6.55-8.21 2.09 0 3.46.86 4.49 2.76.25.44.43.65.65.63.19-.02.34-.18.34-.45 0-.28-.08-.66-.21-1.57-.18-1.01-.18-1.03-.35-1.21-.43-.43-2.6-.85-4.26-.85-2.77 0-5.07.67-6.91 1.95-2.31 1.59-3.72 4.23-3.72 6.86 0 2.2 1 4.59 2.53 6.11 1.69 1.65 3.97 2.48 6.8 2.48 2.27 0 4.77-.65 6.15-1.61.4-.27.4-.27.4-1.7 0-.43-.04-1.06-.04-1.48-.02-.85-.05-1.61-.05-1.76 0-.9.29-1.18 1.35-1.26.81-.03 1.04-.15.99-.46zM161.41 77.8c-.11 0-.56.02-.96.04-.42.01-.82.01-1.17.01h-7.57c-.09 0-.31 0-.58-.01-.2-.03-.46-.03-.73-.03-.16-.02-.39-.02-.45-.02-.4 0-.55.07-.55.38 0 .29.22.38.97.46 1.1.07 1.34.37 1.34 1.91v11.53c0 1.51-.24 1.85-1.34 1.91-.75.07-.97.16-.97.46 0 .3.15.38.55.38h.16c.13 0 .2 0 .32-.01 1.55-.05 2-.07 2.75-.07.59 0 1.38.02 2.07.03 1.01.05.83.05 1.04.05h.12c.43 0 .6-.08.6-.38 0-.33-.19-.39-1.04-.46-1.1-.04-1.35-.4-1.35-1.91v-4.65c0-1.23 0-1.23 1.92-1.23 1.76 0 2.57.43 2.88 1.43l.11.38.03.31c.18.52.12.37.14.46.08.2.24.34.4.34.22 0 .35-.16.35-.48 0-.14-.07-.73-.11-1.3-.07-.51-.07-.66-.07-1.09l.11-2.91c0-.31-.11-.45-.33-.45-.19 0-.31.14-.42.45-.46 1.52-1.09 1.99-2.74 1.99-2.42 0-2.28.11-2.28-1.58v-3.68c0-1.17.26-1.42 1.35-1.42 2.79 0 4.22.51 4.73 1.71.55 1.26.57 1.32.86 1.32.21 0 .32-.18.32-.55v-2.86c.01-.4-.05-.46-.46-.46zM31.2 76.66c-.2 0-.29.11-.4.37-.14.36-.32.55-.59.68-.4.1-1.49.19-2.54.19H18.9c-.82 0-1.06-.17-1.2-.76-.06-.29-.16-.36-.33-.36-.2 0-.31.09-.4.46l-1.11 3.84c-.07.19-.09.31-.09.45 0 .17.17.36.38.34.24-.02.35-.14.59-.58.39-.69 1.29-1.71 1.86-2.09.59-.38 1.34-.5 3.05-.5.49 0 .67.16.67.74v12.7c0 1.52-.25 1.84-1.37 1.92-.76.04-.95.16-.95.45 0 .28.15.39.58.39.16 0 .39 0 1.13-.04.71-.06 1.56-.08 1.91-.08.62 0 1.36.02 2.2.08.73.04.97.04 1.14.04.42 0 .58-.1.58-.39 0-.3-.21-.41-.97-.45-1.12-.08-1.35-.41-1.35-1.92V79.68c0-1.01-.1-.97 1.91-.97 2.24 0 2.95.56 3.35 2.64.06.42.15.58.43.58s.4-.23.42-.85l.17-3.32.02-.31c.06-.49-.07-.79-.32-.79z"/><g><path class="st0" d="M11.5 71.11h250v1.66h-250z"/></g><g><path class="st0" d="M11.5 98.69h250v1.67h-250z"/></g><g><path d="M250.08 21.19c-4.02 0-7.29 3.26-7.29 7.29s3.27 7.29 7.29 7.29 7.29-3.26 7.29-7.29-3.27-7.29-7.29-7.29zm0 14a6.711 6.711 0 1 1 6.71-6.71c0 3.7-3 6.71-6.71 6.71z"/><path d="M247.29 31.55v-6.22h2.64c.66 0 1.15.06 1.45.17.3.11.54.31.72.6.18.29.27.61.27.98 0 .47-.14.85-.41 1.16-.27.3-.68.5-1.23.57.27.16.5.33.67.52s.41.53.71 1.01l.76 1.21h-1.5l-.91-1.35c-.32-.48-.54-.79-.66-.91-.12-.13-.24-.21-.38-.26s-.34-.07-.63-.07h-.25v2.6h-1.25zm1.25-3.58h.93c.6 0 .98-.03 1.13-.08.15-.05.27-.14.35-.26.08-.12.13-.28.13-.47 0-.21-.06-.38-.17-.51a.737.737 0 0 0-.47-.24c-.1-.01-.41-.02-.92-.02h-.98v1.58z"/></g><radialGradient id="SVGID_1_" cx="650.922" cy="-1471.508" r="54.919" gradientTransform="matrix(.948 0 0 .948 -496.32 1425.197)" gradientUnits="userSpaceOnUse"><stop offset="0" style="stop-color:#fff200"/><stop offset="1" style="stop-color:#f37021"/></radialGradient><path d="M174.55 71.09c.39-2.1.57-5.06.57-7.51 0-21.51-17.28-39.03-38.51-39.03-21.23 0-38.51 17.51-38.51 39.03 0 2.31.33 5.36.75 7.51h75.7z" style="fill:url(#SVGID_1_)"/></svg>